<svg width="758" height="144" xmlns="http://www.w3.org/2000/svg"><defs><linearGradient x1="-1.907%" y1="48.601%" x2="144.716%" y2="48.601%" id="a"><stop stop-color="#EE3123" offset="0%"/><stop stop-color="#8B1402" offset="100%"/></linearGradient><linearGradient x1="-119.137%" y1="48.621%" x2="101.834%" y2="48.621%" id="b"><stop stop-color="#EE3123" offset="0%"/><stop stop-color="#8B1402" offset="100%"/></linearGradient></defs><g fill="none" fill-rule="evenodd"><path fill="url(#a)" d="M20.55 142.61L0 129.87 80.25.08l80.27 129.79-20.65 12.75-59.63-96.41z" transform="translate(526.69 .99)"/><path d="M230.65 129.89l-20.7 12.75-59.56-96.34-11.81 18.86c-4.73-7.5-9.27-14.54-13.56-21.73-.46-.77.18-2.56.8-3.57 8-13.07 16-26.09 24.54-39.86l80.29 129.89z" fill="url(#b)" transform="translate(526.69 .99)"/><path d="M740.63 1.12a16.48 16.48 0 0116.71 16.76c-.105 9.317-7.743 16.785-17.06 16.68-9.317-.105-16.785-7.743-16.68-17.06.16-9.49 7.44-16.48 17.03-16.38zm-.22 26.68c5.582-.093 10.045-4.668 10-10.25a10.35 10.35 0 00-10-9.78c-5.523 0-10 4.477-10 10s4.477 10 10 10v.03z" fill="#8B0203"/><path d="M482.78 68.46c4.23 7.95 8.19 15.6 12.36 23.13 1.95 3.51 3.51 6.82-1.16 9.22-4.67 2.4-6.51-1.06-8.25-4.49-3.31-6.52-6.75-13-10-19.52-4.16-8.34-4.11-8.37-14.27-6.86 0 8.65-.11 17.42 0 26.17.08 4.44-2.45 5.82-6 5-1.66-.39-4-2.77-4.06-4.27-.26-21.47-.16-42.94-.2-64.41 0-2.89 1.14-4.39 4.1-4.36 8.15.1 16.34-.3 24.43.42 10.21.91 15.74 6.53 17 15.85 1.59 11.51-2.26 18.91-12 23.1-.39.16-.83.42-1.95 1.02zm-20.93-31v24.4c6-.39 11.73-.24 17.2-1.25 5.47-1.01 7.94-5.69 7.62-12.29-.29-5.86-3.2-10.14-8.46-10.73-5.26-.59-10.87-.13-16.36-.13zm-53.16-.36v23.51c4.8 0 9.4.07 14 0 3-.06 4.93 1 4.84 4.21-.08 3.06-2.09 3.73-4.78 3.67-4.48-.11-9 0-13.87 0v23.64c1.6.08 3.35.24 5.11.25 7.83 0 15.65.09 23.48 0 3.24 0 4.65 1.68 4.68 4.54.03 2.86-1.26 4.55-4.58 4.51-11.49-.13-23-.09-34.47 0-3.66 0-5-1.69-4.94-5.22.073-20.98.073-41.96 0-62.94 0-3.66 1.51-5.15 5-5.14h34.47c3.21 0 4.64 1.58 4.52 4.57-.12 2.99-1.55 4.57-4.72 4.54-7.66-.07-15.32 0-23 0l-5.74-.14zm-34.52 38.73V33.5c0-4.56 2.21-6.47 6.57-5.21 1.42.41 3.35 2.5 3.36 3.84.21 21.65.18 43.3 0 65 0 1.31-1.45 3.7-2.25 3.72-2.46 0-5.6-.07-7.25-1.52-2.25-2-3.46-5.19-4.94-8-6.76-12.76-13.46-25.56-20.89-39.69-.24 2.6-.44 3.77-.44 4.93 0 13-.11 26 0 39 0 4-1.29 5.88-5.43 5.84-4.14-.04-4.75-2.41-4.74-5.89.1-20.32 0-40.64.15-61 0-2.08 1-5.32 2.47-6a6.51 6.51 0 018.71 2.71c3 5.35 5.81 10.84 8.64 16.3 4.94 9.54 9.853 19.097 14.74 28.67l1.3-.37zm-49.94-10.87c0 10.33-.12 20.66.07 31 .06 3.58-1.15 5.3-4.77 5.38-3.62.08-5.52-1.27-5.5-5.25.093-20.993.093-41.993 0-63 0-3.74 1.61-5.06 5.08-5.07 3.75 0 5.29 1.49 5.21 5.45-.24 10.5-.09 20.99-.09 31.49zM288.45 50.9c-3.75 7-7.37 14-11.35 20.86-1.14 2-3.32 4.52-5.08 4.57-1.76.05-3.81-2.63-4.93-4.58-4-7-7.71-14.29-12.1-22.55a34.39 34.39 0 00-.63 4.09c0 14-.07 28 .06 42 0 3.77-.86 6.11-5.19 6.08-4.33-.03-4.93-2.52-4.91-6.22.14-20 .06-40 .07-60 0-2.78-.7-6 3.18-6.88 3.55-.8 6.78 0 8.65 3.37 3.75 6.67 7.29 13.46 10.92 20.19l4.87 9c4.23-7.83 8.15-15.11 12.11-22.37 1.43-2.63 2.44-5.83 4.59-7.61a11.44 11.44 0 018-2.21c1.34.17 3.18 3.68 3.21 5.7.24 20.49.1 41 .19 61.47 0 3.84-1.56 5.51-5.32 5.49-3.76-.02-5.17-1.89-5.14-5.65.13-14.81.05-29.62.05-44.44l-1.25-.31z" fill="#515153" fill-rule="nonzero"/><path d="M181.61 37.27v23.19c4.69 0 9.27.07 13.86 0 2.93-.06 4.94.8 5 4.08.06 3.28-1.92 4.2-4.88 4.13-4.47-.1-8.95 0-13.84 0V92.3c9.34 0 18.61.06 27.88 0 2.87 0 5 .61 5.26 3.85.26 3.24-.57 5.57-4.55 5.55-11.49-.08-23 0-34.48 0-3.45 0-5.2-1.56-5.19-5.16.04-21.153.04-42.307 0-63.46 0-3.65 1.77-5.15 5.19-5.15h34.48c3.18 0 4.63 1.5 4.64 4.51.01 3.01-1.39 5-4.79 5-9.32-.18-18.64-.17-28.58-.17zm-69.13 27.19c0-10.32.12-20.63-.06-30.95-.07-4.1 1.63-5.81 5.56-5.79 6.49 0 13-.2 19.47.09 12.51.56 19.83 7.52 20.35 20 .47 11.13.46 22.3 0 33.43-.49 12.64-8.08 19.78-20.71 20.19-6.15.2-12.31 0-18.47.11-4.32.09-6.36-1.47-6.25-6.14.28-10.28.11-20.6.11-30.94zm11 27.63c4.57 0 8.88.27 13.14-.06 6.58-.52 10.47-4.36 10.64-11a648.32 648.32 0 000-33c-.16-5.93-3.69-10.05-8.8-10.5-4.89-.43-9.86-.09-15-.09l.02 54.65zM54.1 64.71c.39-7.13.46-14.29 1.27-21.37.74-6.43 4.67-11 10.6-13.46a28.83 28.83 0 0121.92-.28c8.33 3.19 11.81 10 12 18.42.28 11.31.48 22.65 0 33.94-.63 13.77-8.87 20.44-23.76 20.18-13.37-.23-21.06-7.61-21.59-21-.22-5.48 0-11 0-16.47l-.44.04zm35.23.66c0-5.66.21-11.33-.05-17-.34-7.21-4.75-11.11-12-11.11S65.54 41 65.34 48.4a661.714 661.714 0 000 32.94c.16 7.5 4.36 11.3 11.65 11.36 7.58.06 12-3.88 12.31-11.36.21-5.31.04-10.64.04-15.97h-.01zM.19 65.02c0-7-.28-14 .1-20.93.28-5.23 3.1-9.37 7.47-12.38 8.48-5.85 23.63-5.12 31.4 1.44a16.14 16.14 0 015.89 12.19c.13 3.08-.57 5.74-4.36 6-3.54.26-5.91-.52-6.52-4.86-1-6.82-5-9.45-12.49-9.2-6.58.22-10.82 3.36-11.07 9.77-.47 12-.46 24 0 35.92.24 6.4 4.75 9.59 11.67 9.73 7.24.14 10.7-2.32 11.8-9.34.56-3.6 1.91-5.54 5.58-5.52 3.67.02 5.4 1.84 5.45 5.58a17.83 17.83 0 01-14.27 17.55 43.64 43.64 0 01-16.74.11c-7.78-1.57-13-7-13.78-15.14C-.31 79.02.19 72 .19 65.02z" fill="#000" fill-rule="nonzero"/></g></svg>